# AST/ASF file generated using VICON BodyLanguage
# -----------------------------------------------
:version 1.10
:name VICON
:units
  mass 1.0
  length 0.45
  angle deg
:documentation
   .ast/.asf automatically generated from VICON data using
   VICON BodyBuilder and BodyLanguage model FoxedUp or BRILLIANT.MOD
:root
   order TX TY TZ RX RY RZ
   axis XYZ
   position 0 0 0  
   orientation 0 0 0 
:bonedata
  begin
     id 1 
     name lhipjoint
     direction 0.610259 -0.730986 0.305356 
     length 2.50941 
     axis 0 0 0  XYZ
  end
  begin
     id 2 
     name lfemur
     direction 0.34202 -0.939693 0  
     length 7.48822  
     axis 0 0 20  XYZ
    dof rx ry rz
    limits (-160.0 20.0)
           (-70.0 70.0)
           (-60.0 70.0)
  end
  begin
     id 3 
     name ltibia
     direction 0.34202 -0.939693 0   
     length 7.60141   
     axis 0 0 20   XYZ
    dof rx
    limits (-10.0 170.0)
  end
  begin
     id 4 
     name lfoot
     direction 0.0673488 -0.185039 0.980421   
     length 2.04049   
     axis -90 7.62852e-016 20   XYZ
    dof rx rz
    limits (-45.0 90.0)
           (-70.0 20.0)
  end
  begin
     id 5 
     name ltoes
     direction 1.5356e-011 -4.21729e-011 1   
     length 1.02897   
     axis -90 7.62852e-016 20   XYZ
    dof rx
    limits (-90.0 20.0)
  end
  begin
     id 6 
     name rhipjoint
     direction -0.57612 -0.754205 0.315056   
     length 2.43216  
     axis 0 0 0  XYZ 
  end
  begin
     id 7 
     name rfemur
     direction -0.34202 -0.939693 0   
     length 7.42799   
     axis 0 0 -20   XYZ
    dof rx ry rz
    limits (-160.0 20.0)
           (-70.0 70.0)
           (-70.0 60.0)
  end
  begin
     id 8 
     name rtibia
     direction -0.34202 -0.939693 0   
     length 7.69484   
     axis 0 0 -20   XYZ
    dof rx
    limits (-10.0 170.0)
 end
 begin
     id 9 
     name rfoot
     direction -0.111837 -0.30727 0.945028   
     length 2.15769  
     axis -90 -7.62852e-016 -20   XYZ
    dof rx rz
    limits (-45.0 90.0)
           (-20.0 70.0)
  end
  begin
     id 10 
     name rtoes
     direction -1.53539e-011 -4.21878e-011 1   
     length 1.07391   
     axis -90 -7.62852e-016 -20   XYZ
    dof rx
    limits (-90.0 20.0)
  end
  begin
     id 11 
     name lowerback
     direction 0.00552624 0.990109 -0.140195   
     length 2.12403   
     axis 0 0 0   XYZ
    dof rx ry rz
    limits (-20.0 45.0)
           (-30.0 30.0)
           (-30.0 30.0)
  end
  begin
     id 12 
     name upperback
     direction 0.00361898 0.999976 -0.00584723   
     length 2.13232   
     axis 0 0 0   XYZ
    dof rx ry rz
    limits (-20.0 45.0)
           (-30.0 30.0)
           (-30.0 30.0)
  end
  begin
     id 13 
     name thorax
     direction -0.000331275 0.998253 0.0590847   
     length 2.17688   
     axis 0 0 0   XYZ
    dof rx ry rz
    limits (-20.0 45.0)
           (-30.0 30.0)
           (-30.0 30.0)
  end
  begin
     id 14 
     name lowerneck
     direction -0.0561561 0.979832 0.19177   
     length 1.64159   
     axis 0 0 0   XYZ
    dof rx ry rz
    limits (-20.0 45.0)
           (-30.0 30.0)
           (-30.0 30.0)
  end
  begin
     id 15 
     name upperneck
     direction 0.0827153 0.979385 -0.184293   
     length 1.68939   
     axis 0 0 0   XYZ
    dof rx ry rz
    limits (-20.0 45.0)
           (-30.0 30.0)
           (-30.0 30.0)
  end
  begin
     id 16
     name head
     direction 0.0278583 0.995936 -0.0856488  
     length 1.70207  
     axis 0 0 0   XYZ
    dof rx ry rz
    limits (-20.0 45.0)
           (-30.0 30.0)
           (-30.0 30.0)
  end
  begin
     id 17 
     name lclavicle
     direction 0.950993 0.301131 -0.0702275  
     length 3.41652  
     axis 0 0 0   XYZ
    dof ry rz
    limits (-20.0 10.0)
           (0.0 20.0)
  end
  begin
     id 18 
     name lhumerus
     direction 1 -4.48981e-011 -3.9662e-029   
     length 5.32955   
     axis 180 -30 -90   XYZ
    dof rx ry rz
    limits (-60.0 90.0)
           (-90.0 90.0)
           (-90.0 90.0)
  end
  begin
     id 19
     name lradius
     direction 1 -4.48925e-011 -9.0549e-027   
     length 3.69232   
     axis 180 -30 -90   XYZ
    dof rx
    limits (-10.0 170.0)
  end
  begin
     id 20
     name lwrist
     direction 1 -4.49007e-011 -1.49005e-026   
     length 1.84616   
     axis 9.0955e-015 90 90   XYZ
    dof ry
    limits (-180.0 0.0)
 end
  begin
     id 21 
     name lhand
     direction 1 -4.49016e-011 -2.98023e-026   
     length 0.536598   
     axis 1.90115e-014 90 90   XYZ
    dof rx rz
    limits (-90.0 90.0)
           (-45.0 45.0)
  end
  begin
     id 22 
     name lfingers
     direction 1 -4.48924e-011 -5.9578e-026   
     length 0.432619   
     axis 3.80223e-014 90 90   XYZ
    dof rx
    limits (0.0 90.0)
  end
  begin
     id 23
     name lthumb
     direction 0.707107 -6.34947e-011 0.707107   
     length 0.621157   
     axis -90 45 -3.84942e-014   XYZ
    dof rx rz
    limits (-45.0 45.0)
           (-45.0 45.0)
  end
  begin
     id 24 
     name rclavicle
     direction -0.955495 0.276497 -0.102848   
     length 3.36357  
     axis 0 0 0   XYZ 
    dof ry rz
    limits (-10.0 20.0)
           (-20.0 0.0)
  end
  begin
     id 25 
     name rhumerus
     direction -1 -4.48961e-011 3.30983e-027  
     length 5.23431   
     axis 180 30 90   XYZ
    dof rx ry rz
    limits (-90.0 60.0)
           (-90.0 90.0)
           (-90.0 90.0)
  end
  begin
     id 26 
     name rradius
     direction -1 -4.48965e-011 -6.63263e-027   
     length 3.55301   
     axis 180 30 90   XYZ
    dof rx
    limits (-10.0 170.0)
  end
  begin
     id 27 
     name rwrist
     direction -1 -4.48942e-011 -1.48958e-026   
     length 1.77651   
     axis 9.0955e-015 -90 -90   XYZ
    dof ry
    limits (-180.0 0.0)
  end
  begin
     id 28
     name rhand
     direction -1 -4.48977e-011 -2.97966e-026   
     length 0.772522   
     axis 1.90115e-014 -90 -90   XYZ
    dof rx rz
    limits (-90.0 90.0)
           (-45.0 45.0)
  end
  begin
     id 29
     name rfingers
     direction -1 -4.49135e-011 -5.96389e-026   
     length 0.622827   
     axis 3.80223e-014 -90 -90   XYZ
    dof rx
    limits (0.0 90.0)
  end
  begin
     id 30
     name rthumb
     direction -0.707107 -6.34969e-011 0.707107   
     length 0.894259   
     axis -90 -45 3.84942e-014   XYZ
    dof rx rz
    limits (-45.0 45.0)
           (-45.0 45.0)
  end
:hierarchy
  begin
    root lhipjoint rhipjoint lowerback
    lhipjoint lfemur
    lfemur ltibia
    ltibia lfoot
    lfoot ltoes
    rhipjoint rfemur
    rfemur rtibia
    rtibia rfoot
    rfoot rtoes
    lowerback upperback
    upperback thorax
    thorax lowerneck lclavicle rclavicle
    lowerneck upperneck
    upperneck head
    lclavicle lhumerus
    lhumerus lradius
    lradius lwrist
    lwrist lhand lthumb
    lhand lfingers
    rclavicle rhumerus
    rhumerus rradius
    rradius rwrist
    rwrist rhand rthumb
    rhand rfingers
  end

#!OML:ASF F:\VICON\USERDATA\INSTALL\rory3\rory3.ASF
:FULLY-SPECIFIED
:DEGREES
621
root -8.67784 17.8472 13.2294 533.64 77.8047 -187.864
lowerback 10.7872 1.22394 -4.06864
upperback 0.873949 1.18177 0.0109065
thorax -5.22072 0.692663 2.12368
lowerneck -17.1236 -2.98375 -8.38198
upperneck 34.1324 -1.66594 3.54021
head 14.8459 -0.909881 2.75144
rclavicle 2.89201e-014 1.9133e-015
rhumerus -35.9161 -8.85123 -80.9827
rradius 36.2777
rwrist 3.9632
rhand -15.4784 9.57542
rfingers 7.12502
rthumb 10.7033 -20.1319
lclavicle 2.89201e-014 1.9133e-015
lhumerus -33.3218 3.50671 84.7192
lradius 26.8329
lwrist -8.84504
lhand -19.9075 25.4027
lfingers 7.12502
lthumb 6.42913 55.2851
rfemur -24.0032 -2.72348 20.023
rtibia 28.3162
rfoot -3.43981 -4.02474
rtoes -1.16764
lfemur 9.9758 -0.203772 -24.5482
ltibia 12.0346
lfoot -7.28184 -16.0505
ltoes 3.36684
622
root -8.55466 17.8658 13.2471 534.635 77.7478 -186.817
lowerback 10.7726 1.4038 -3.82181
upperback 0.818897 1.44314 -0.093031
thorax -5.27936 0.815864 1.83496
lowerneck -16.8667 -3.09161 -7.98166
upperneck 34.1047 -1.94988 3.47563
head 14.7868 -0.98231 2.60488
rclavicle 2.22794e-014 -4.02539e-015
rhumerus -36.3199 -9.64426 -80.9502
rradius 36.2616
rwrist 4.24261
rhand -15.5724 9.6294
rfingers 7.12502
rthumb 10.6126 -20.0826
lclavicle 2.22794e-014 -4.02539e-015
lhumerus -33.4056 2.972 84.5084
lradius 26.9705
lwrist -8.67288
lhand -19.2093 25.5798
lfingers 7.12502
lthumb 7.1031 55.4406
rfemur -23.5375 -1.77103 20.205
rtibia 28.3483
rfoot -3.50861 -5.15295
rtoes 1.66107
lfemur 9.93816 -0.509908 -24.1625
ltibia 12.9051
lfoot -6.45606 -16.1755
ltoes 5.13033
623
root -8.43305 17.8796 13.2582 535.133 77.6063 -186.282
lowerback 10.7362 1.48757 -3.6392
upperback 0.803208 1.57332 -0.169908
thorax -5.27634 0.874968 1.63208
lowerneck -16.7412 -3.15834 -7.81183
upperneck 34.1129 -2.11385 3.49297
head 14.7704 -1.02428 2.55499
rclavicle 2.63141e-014 -6.16232e-015
rhumerus -36.5733 -10.2678 -80.9059
rradius 36.228
rwrist 4.59352
rhand -15.5718 9.79546
rfingers 7.12502
rthumb 10.6132 -19.9165
lclavicle 2.63141e-014 -6.16232e-015
lhumerus -33.4369 2.83428 84.2373
lradius 27.0262
lwrist -8.49677
lhand -18.7512 24.9345
lfingers 7.12502
lthumb 7.54526 54.7799
rfemur -23.0826 -1.26074 20.3185
rtibia 28.361
rfoot -3.74672 -5.35421
rtoes 4.9442
lfemur 9.67246 -0.731723 -23.8666
ltibia 14.0855
lfoot -5.57202 -16.5211
ltoes 7.40671
624
root -8.30993 17.8942 13.2669 535.461 77.4785 -185.888
lowerback 10.6903 1.46185 -3.60036
upperback 0.842785 1.55035 -0.10731
thorax -5.2084 0.86216 1.68084
lowerneck -16.7634 -3.13472 -7.85615
upperneck 34.0721 -2.04055 3.4262
head 14.7516 -1.00851 2.54616
rclavicle 3.02028e-014 7.55382e-015
rhumerus -36.5776 -10.1405 -80.9497
rradius 36.1394
rwrist 4.57868
rhand -15.6006 9.68646
rfingers 7.12502
rthumb 10.5854 -20.027
lclavicle 3.02028e-014 7.55382e-015
lhumerus -33.4905 3.14558 84.0234
lradius 27.0994
lwrist -8.48641
lhand -18.9852 24.4368
lfingers 7.12502
lthumb 7.31944 54.2901
rfemur -22.6458 -0.901939 20.4498
rtibia 28.4712
rfoot -4.13519 -5.49504
rtoes 6.88271
lfemur 9.46652 -0.722618 -23.5678
ltibia 15.217
lfoot -4.86486 -16.873
ltoes 7.99577
625
root -8.18581 17.9047 13.2811 535.143 77.3977 -186.155
lowerback 10.6035 1.49746 -3.79003
upperback 0.914461 1.58427 -0.0608631
thorax -5.09307 0.88151 1.8338
lowerneck -16.7462 -3.1231 -7.94679
upperneck 33.9552 -2.00435 3.43192
head 14.6929 -1.00487 2.56681
rclavicle 6.49467e-015 -2.01269e-015
rhumerus -36.4806 -10.2168 -80.8964
rradius 35.8928
rwrist 4.80687
rhand -15.6038 9.63707
rfingers 7.12502
rthumb 10.5824 -20.0765
lclavicle 6.49467e-015 -2.01269e-015
lhumerus -33.5143 3.36194 83.9391
lradius 27.2301
lwrist -8.57417
lhand -19.5029 24.7772
lfingers 7.12502
lthumb 6.81971 54.6473
rfemur -22.2195 -0.848285 20.5433
rtibia 28.5743
rfoot -4.54563 -5.76747
rtoes 5.73412
lfemur 9.16021 -0.65811 -23.4272
ltibia 16.5182
lfoot -4.41211 -17.1139
ltoes 6.73793
626
root -8.06215 17.9111 13.2935 534.548 77.2671 -186.72
lowerback 10.4541 1.53484 -3.97453
upperback 1.01201 1.62321 -0.0665996
thorax -4.91448 0.901296 1.93031
lowerneck -16.7931 -3.13571 -8.06178
upperneck 33.8998 -2.01272 3.50815
head 14.6819 -1.01336 2.61535
rclavicle 1.19271e-014 -3.80176e-015
rhumerus -36.346 -10.4146 -80.8289
rradius 35.6539
rwrist 5.11366
rhand -15.3441 9.69208
rfingers 7.12502
rthumb 10.8329 -20.0085
lclavicle 1.19271e-014 -3.80176e-015
lhumerus -33.4803 3.46793 83.8879
lradius 27.3698
lwrist -8.53732
lhand -19.5028 24.9189
lfingers 7.12502
lthumb 6.81983 54.7891
rfemur -21.7672 -0.892682 20.5513
rtibia 28.6627
rfoot -4.92655 -6.08193
rtoes 4.18903
lfemur 8.75852 -0.822027 -23.4133
ltibia 17.9275
lfoot -3.79102 -17.3082
ltoes 5.79232
627
root -7.93903 17.9195 13.3014 534.099 77.0749 -187.142
lowerback 10.3357 1.50446 -4.03776
upperback 1.07132 1.58206 -0.106562
thorax -4.78399 0.879548 1.93358
lowerneck -16.877 -3.1018 -8.00702
upperneck 33.917 -1.94265 3.42357
head 14.7018 -0.98822 2.58316
rclavicle 2.28789e-014 -7.47927e-015
rhumerus -36.2642 -10.2383 -80.9651
rradius 35.5178
rwrist 4.95051
rhand -15.0565 9.64278
rfingers 7.12502
rthumb 11.1102 -20.0431
lclavicle 2.28789e-014 -7.47927e-015
lhumerus -33.5269 3.61237 83.7191
lradius 27.5922
lwrist -8.33033
lhand -19.9016 24.9763
lfingers 7.12502
lthumb 6.43478 54.8585
rfemur -21.2846 -0.713901 20.5099
rtibia 28.7338
rfoot -5.26204 -6.43253
rtoes 4.72002
lfemur 8.29275 -1.13501 -23.4035
ltibia 19.4307
lfoot -2.99282 -17.4955
ltoes 4.95081
628
root -7.81614 17.9316 13.3076 534.267 76.8458 -186.907
lowerback 10.3644 1.4476 -3.86715
upperback 1.04882 1.52063 -0.177807
thorax -4.81321 0.846017 1.77129
lowerneck -16.828 -3.0493 -7.89788
upperneck 33.9561 -1.88678 3.3948
head 14.7015 -0.952069 2.56361
rclavicle -1.65116e-014 0
rhumerus -36.292 -10.0446 -81.2177
rradius 35.361
rwrist 4.68612
rhand -15.0712 9.51322
rfingers 7.12502
rthumb 11.0961 -20.1734
lclavicle -1.65116e-014 0
lhumerus -33.7368 3.71518 83.4279
lradius 27.9283
lwrist -8.0673
lhand -20.475 25.2736
lfingers 7.12502
lthumb 5.88125 55.172
rfemur -20.7411 -0.6514 20.6391
rtibia 28.7257
rfoot -5.62968 -6.63892
rtoes 5.87131
lfemur 7.74934 -1.46248 -23.2136
ltibia 21.0699
lfoot -2.02574 -17.7981
ltoes 3.57028
629
root -7.6927 17.9458 13.3156 534.636 76.6246 -186.506
lowerback 10.3534 1.40679 -3.75788
upperback 1.0269 1.47878 -0.165925
thorax -4.82503 0.823473 1.72836
lowerneck -16.7789 -3.00781 -7.97285
upperneck 33.9887 -1.82566 3.4785
head 14.7028 -0.921912 2.62389
rclavicle 4.04403e-015 -8.94531e-016
rhumerus -36.3146 -9.90395 -81.3294
rradius 35.2128
rwrist 4.71816
rhand -15.1067 9.86599
rfingers 7.12502
rthumb 11.0619 -19.8225
lclavicle 4.04403e-015 -8.94531e-016
lhumerus -33.9201 3.85976 83.2523
lradius 28.2456
lwrist -7.84527
lhand -20.2489 25.3587
lfingers 7.12502
lthumb 6.09954 55.2508
rfemur -20.218 -0.888127 20.8417
rtibia 28.6484
rfoot -6.11027 -6.57484
rtoes 6.86318
lfemur 7.08053 -1.86868 -22.9487
ltibia 22.8278
lfoot -0.51259 -18.1393
ltoes 3.91401
630
root -7.56812 17.9595 13.3272 535.317 76.5127 -185.78
lowerback 10.3036 1.41652 -3.63167
upperback 1.01901 1.50987 -0.111504
thorax -4.80556 0.836215 1.71061
lowerneck -16.8083 -2.99542 -8.04018
upperneck 34.0536 -1.78833 3.51898
head 14.7386 -0.907539 2.66165
rclavicle 1.53872e-014 -4.96962e-015
rhumerus -36.3427 -9.73087 -81.4058
rradius 35.0798
rwrist 4.79953
rhand -15.0823 10.2069
rfingers 7.12502
rthumb 11.0854 -19.4803
lclavicle 1.53872e-014 -4.96962e-015
lhumerus -34.0609 3.7472 83.2057
lradius 28.5208
lwrist -7.51276
lhand -20.1479 25.1971
lfingers 7.12502
lthumb 6.19708 55.0864
rfemur -19.6402 -0.983277 21.138
rtibia 28.5026
rfoot -6.60962 -6.60658
rtoes 8.09113
lfemur 6.32844 -2.19819 -22.5378
ltibia 24.7262
lfoot 1.44835 -18.4609
ltoes 6.57526
